<svg width="130" height="31" viewBox="0 0 130 31" fill="none" xmlns="http://www.w3.org/2000/svg">
<path d="M10.6597 16.632L8.28372 24H5.30772L0.987719 12.432H4.77972L6.91572 19.32L8.95572 12.432H12.3397L14.3797 19.32L16.5157 12.432H20.3077L15.9877 24H13.0117L10.6597 16.632ZM26.8691 21.168C27.2851 21.168 27.6611 21.088 27.9971 20.928C28.3331 20.768 28.6211 20.56 28.8611 20.304C29.1011 20.032 29.2851 19.72 29.4131 19.368C29.5571 19 29.6291 18.616 29.6291 18.216C29.6291 17.816 29.5571 17.44 29.4131 17.088C29.2851 16.736 29.1011 16.424 28.8611 16.152C28.6211 15.88 28.3331 15.664 27.9971 15.504C27.6611 15.344 27.2851 15.264 26.8691 15.264C26.4531 15.264 26.0771 15.344 25.7411 15.504C25.4051 15.664 25.1171 15.88 24.8771 16.152C24.6371 16.424 24.4451 16.736 24.3011 17.088C24.1731 17.44 24.1091 17.816 24.1091 18.216C24.1091 18.616 24.1731 19 24.3011 19.368C24.4451 19.72 24.6371 20.032 24.8771 20.304C25.1171 20.56 25.4051 20.768 25.7411 20.928C26.0771 21.088 26.4531 21.168 26.8691 21.168ZM33.3011 12.432V24H29.6291V22.368C29.4851 22.64 29.2931 22.896 29.0531 23.136C28.8131 23.36 28.5331 23.56 28.2131 23.736C27.9091 23.896 27.5731 24.024 27.2051 24.12C26.8371 24.232 26.4691 24.288 26.1011 24.288C25.2691 24.288 24.5011 24.136 23.7971 23.832C23.1091 23.512 22.5171 23.088 22.0211 22.56C21.5251 22.016 21.1411 21.376 20.8691 20.64C20.5971 19.888 20.4611 19.08 20.4611 18.216C20.4611 17.352 20.5971 16.552 20.8691 15.816C21.1411 15.064 21.5251 14.424 22.0211 13.896C22.5171 13.352 23.1091 12.928 23.7971 12.624C24.5011 12.304 25.2691 12.144 26.1011 12.144C26.4691 12.144 26.8371 12.2 27.2051 12.312C27.5731 12.408 27.9091 12.544 28.2131 12.72C28.5331 12.896 28.8131 13.104 29.0531 13.344C29.2931 13.584 29.4851 13.832 29.6291 14.088V12.432H33.3011ZM36.4155 12.432H40.0875V14.112C40.4075 13.488 40.8875 13.008 41.5275 12.672C42.1835 12.32 42.9675 12.144 43.8795 12.144C44.6315 12.144 45.2795 12.264 45.8235 12.504C46.3675 12.728 46.7995 13.048 47.1195 13.464C47.4875 13.912 47.7275 14.432 47.8395 15.024C47.9675 15.6 48.0315 16.304 48.0315 17.136V24H44.3595V18.072C44.3595 17.24 44.2075 16.568 43.9035 16.056C43.6155 15.528 43.0875 15.264 42.3195 15.264C41.5675 15.264 41.0075 15.528 40.6395 16.056C40.2715 16.584 40.0875 17.296 40.0875 18.192V24H36.4155V12.432ZM50.9936 12.432H54.6656V14.112C54.9856 13.488 55.4656 13.008 56.1056 12.672C56.7616 12.32 57.5456 12.144 58.4576 12.144C59.2096 12.144 59.8576 12.264 60.4016 12.504C60.9456 12.728 61.3776 13.048 61.6976 13.464C62.0656 13.912 62.3056 14.432 62.4176 15.024C62.5456 15.6 62.6096 16.304 62.6096 17.136V24H58.9376V18.072C58.9376 17.24 58.7856 16.568 58.4816 16.056C58.1936 15.528 57.6656 15.264 56.8976 15.264C56.1456 15.264 55.5856 15.528 55.2176 16.056C54.8496 16.584 54.6656 17.296 54.6656 18.192V24H50.9936V12.432ZM71.2597 21.168C71.6757 21.168 72.0517 21.088 72.3877 20.928C72.7237 20.768 73.0117 20.56 73.2517 20.304C73.4917 20.032 73.6757 19.72 73.8037 19.368C73.9477 19 74.0197 18.616 74.0197 18.216C74.0197 17.816 73.9477 17.44 73.8037 17.088C73.6757 16.736 73.4917 16.424 73.2517 16.152C73.0117 15.88 72.7237 15.664 72.3877 15.504C72.0517 15.344 71.6757 15.264 71.2597 15.264C70.8437 15.264 70.4677 15.344 70.1317 15.504C69.7957 15.664 69.5077 15.88 69.2677 16.152C69.0277 16.424 68.8357 16.736 68.6917 17.088C68.5637 17.44 68.4997 17.816 68.4997 18.216C68.4997 18.616 68.5637 19 68.6917 19.368C68.8357 19.72 69.0277 20.032 69.2677 20.304C69.5077 20.56 69.7957 20.768 70.1317 20.928C70.4677 21.088 70.8437 21.168 71.2597 21.168ZM77.6917 12.432V24H74.0197V22.368C73.8757 22.64 73.6837 22.896 73.4437 23.136C73.2037 23.36 72.9237 23.56 72.6037 23.736C72.2997 23.896 71.9637 24.024 71.5957 24.12C71.2277 24.232 70.8597 24.288 70.4917 24.288C69.6597 24.288 68.8917 24.136 68.1877 23.832C67.4997 23.512 66.9077 23.088 66.4117 22.56C65.9157 22.016 65.5317 21.376 65.2597 20.64C64.9877 19.888 64.8517 19.08 64.8517 18.216C64.8517 17.352 64.9877 16.552 65.2597 15.816C65.5317 15.064 65.9157 14.424 66.4117 13.896C66.9077 13.352 67.4997 12.928 68.1877 12.624C68.8917 12.304 69.6597 12.144 70.4917 12.144C70.8597 12.144 71.2277 12.2 71.5957 12.312C71.9637 12.408 72.2997 12.544 72.6037 12.72C72.9237 12.896 73.2037 13.104 73.4437 13.344C73.6837 13.584 73.8757 13.832 74.0197 14.088V12.432H77.6917ZM80.4461 21.816C80.4461 21.48 80.5101 21.168 80.6381 20.88C80.7661 20.592 80.9341 20.344 81.1421 20.136C81.3661 19.912 81.6221 19.736 81.9101 19.608C82.2141 19.48 82.5341 19.416 82.8701 19.416C83.2061 19.416 83.5181 19.48 83.8061 19.608C84.1101 19.736 84.3661 19.912 84.5741 20.136C84.7981 20.344 84.9741 20.592 85.1021 20.88C85.2301 21.168 85.2941 21.48 85.2941 21.816C85.2941 22.152 85.2301 22.464 85.1021 22.752C84.9741 23.04 84.7981 23.296 84.5741 23.52C84.3661 23.728 84.1101 23.896 83.8061 24.024C83.5181 24.152 83.2061 24.216 82.8701 24.216C82.5341 24.216 82.2141 24.152 81.9101 24.024C81.6221 23.896 81.3661 23.728 81.1421 23.52C80.9341 23.296 80.7661 23.04 80.6381 22.752C80.5101 22.464 80.4461 22.152 80.4461 21.816ZM95.2723 24C95.0003 24.048 94.6563 24.088 94.2403 24.12C93.8403 24.168 93.3683 24.192 92.8243 24.192C92.3923 24.192 91.9363 24.16 91.4563 24.096C90.9763 24.032 90.5283 23.872 90.1123 23.616C89.7123 23.344 89.3763 22.936 89.1043 22.392C88.8483 21.832 88.7203 21.072 88.7203 20.112V15.168H86.8963V12.432H88.7203V9H92.3683V12.432H95.0083V15.168H92.3683V19.296C92.3683 19.728 92.4083 20.072 92.4883 20.328C92.5683 20.584 92.6803 20.784 92.8243 20.928C92.9683 21.056 93.1363 21.144 93.3283 21.192C93.5203 21.24 93.7283 21.264 93.9523 21.264C94.1763 21.264 94.4083 21.264 94.6483 21.264C94.8883 21.248 95.0963 21.224 95.2723 21.192V24ZM96.7078 8.592C96.7078 7.936 96.9318 7.384 97.3798 6.936C97.8278 6.488 98.3878 6.264 99.0598 6.264C99.3958 6.264 99.7078 6.328 99.9958 6.456C100.284 6.568 100.532 6.728 100.74 6.936C100.964 7.144 101.132 7.392 101.244 7.68C101.372 7.968 101.436 8.272 101.436 8.592C101.436 8.912 101.372 9.216 101.244 9.504C101.132 9.776 100.964 10.024 100.74 10.248C100.532 10.456 100.284 10.624 99.9958 10.752C99.7078 10.864 99.3958 10.92 99.0598 10.92C98.7238 10.92 98.4118 10.864 98.1238 10.752C97.8518 10.624 97.6038 10.456 97.3798 10.248C97.1718 10.024 97.0038 9.776 96.8758 9.504C96.7638 9.216 96.7078 8.912 96.7078 8.592ZM97.2358 12.432H100.908V24H97.2358V12.432ZM110.489 15.264C110.073 15.264 109.689 15.344 109.337 15.504C109.001 15.664 108.713 15.88 108.473 16.152C108.233 16.408 108.041 16.72 107.897 17.088C107.769 17.44 107.705 17.816 107.705 18.216C107.705 18.616 107.769 19 107.897 19.368C108.041 19.72 108.233 20.032 108.473 20.304C108.713 20.56 109.001 20.768 109.337 20.928C109.689 21.088 110.073 21.168 110.489 21.168C110.889 21.168 111.257 21.088 111.593 20.928C111.929 20.768 112.217 20.56 112.457 20.304C112.697 20.032 112.881 19.72 113.009 19.368C113.153 19 113.225 18.616 113.225 18.216C113.225 17.816 113.153 17.44 113.009 17.088C112.881 16.72 112.697 16.408 112.457 16.152C112.217 15.88 111.929 15.664 111.593 15.504C111.257 15.344 110.889 15.264 110.489 15.264ZM107.705 14.088C107.849 13.832 108.041 13.584 108.281 13.344C108.521 13.104 108.801 12.896 109.121 12.72C109.441 12.544 109.777 12.408 110.129 12.312C110.497 12.2 110.873 12.144 111.257 12.144C112.089 12.144 112.849 12.304 113.537 12.624C114.241 12.928 114.841 13.352 115.337 13.896C115.833 14.424 116.217 15.064 116.489 15.816C116.761 16.552 116.897 17.352 116.897 18.216C116.897 19.08 116.761 19.888 116.489 20.64C116.217 21.376 115.833 22.016 115.337 22.56C114.841 23.088 114.241 23.512 113.537 23.832C112.849 24.136 112.089 24.288 111.257 24.288C110.873 24.288 110.497 24.232 110.129 24.12C109.777 24.024 109.441 23.888 109.121 23.712C108.801 23.536 108.521 23.336 108.281 23.112C108.041 22.872 107.849 22.616 107.705 22.344V29.232H104.033V12.432H107.705V14.088ZM125.386 17.184C125.898 17.328 126.378 17.488 126.826 17.664C127.274 17.824 127.666 18.032 128.002 18.288C128.338 18.528 128.602 18.832 128.794 19.2C129.002 19.568 129.106 20.032 129.106 20.592C129.106 21.28 128.97 21.864 128.698 22.344C128.426 22.808 128.05 23.192 127.57 23.496C127.09 23.784 126.53 23.992 125.89 24.12C125.266 24.248 124.594 24.312 123.874 24.312C122.226 24.312 120.922 23.952 119.962 23.232C119.018 22.512 118.546 21.48 118.546 20.136H122.146C122.146 20.744 122.314 21.184 122.65 21.456C123.002 21.712 123.45 21.84 123.994 21.84C124.442 21.84 124.802 21.76 125.074 21.6C125.362 21.424 125.506 21.144 125.506 20.76C125.506 20.536 125.442 20.36 125.314 20.232C125.202 20.088 125.018 19.96 124.762 19.848C124.522 19.72 124.202 19.6 123.802 19.488C123.418 19.36 122.954 19.208 122.41 19.032C121.93 18.888 121.474 18.736 121.042 18.576C120.61 18.4 120.226 18.192 119.89 17.952C119.57 17.712 119.314 17.408 119.122 17.04C118.93 16.672 118.834 16.208 118.834 15.648C118.834 14.448 119.29 13.56 120.202 12.984C121.13 12.408 122.378 12.12 123.946 12.12C124.778 12.12 125.506 12.224 126.13 12.432C126.77 12.624 127.29 12.896 127.69 13.248C128.106 13.6 128.418 14.016 128.626 14.496C128.834 14.976 128.938 15.488 128.938 16.032H125.314C125.314 15.552 125.186 15.184 124.93 14.928C124.69 14.656 124.314 14.52 123.802 14.52C123.434 14.52 123.114 14.608 122.842 14.784C122.57 14.944 122.434 15.2 122.434 15.552C122.434 15.76 122.498 15.936 122.626 16.08C122.754 16.208 122.938 16.328 123.178 16.44C123.434 16.552 123.746 16.664 124.114 16.776C124.482 16.888 124.906 17.024 125.386 17.184Z" fill="white"/>
</svg>
